<svg xmlns="http://www.w3.org/2000/svg" width="15.601" height="12.153" viewBox="0 0 15.601 12.153"><g transform="translate(10.732 0.868)"><g transform="translate(0 0)"><path d="M356.942,101.721l-4.731,5.208,4.731,5.208a1.636,1.636,0,0,0,.137-.651v-9.115A1.636,1.636,0,0,0,356.942,101.721Z" transform="translate(-352.211 -101.721)"/></g></g><g transform="translate(0.784 0)"><path d="M39.167,76H26.308a1.248,1.248,0,0,0-.587.152l6.047,6.666a1.28,1.28,0,0,0,1.939,0l6.047-6.666A1.248,1.248,0,0,0,39.167,76Z" transform="translate(-25.721 -76)"/></g><g transform="translate(0 0.868)"><g transform="translate(0 0)"><path d="M.137,101.721a1.636,1.636,0,0,0-.137.651v9.115a1.636,1.636,0,0,0,.137.651l4.731-5.208Z" transform="translate(0 -101.721)"/></g></g><g transform="translate(0.784 6.792)"><path d="M35.023,277.211l-.67.742a2.133,2.133,0,0,1-3.232,0l-.669-.742-4.731,5.208a1.248,1.248,0,0,0,.587.152H39.167a1.248,1.248,0,0,0,.587-.152Z" transform="translate(-25.721 -277.211)"/></g></svg>