<svg xmlns="http://www.w3.org/2000/svg" width="27.668" height="35.186" viewBox="0 0 27.668 35.186"><defs><style>.a{fill:#fff;}.b{fill:#00a4c3;}.c{fill:#ff4b30;}</style></defs><path class="a" d="M56.137,52.4A11.533,11.533,0,1,1,44.6,40.871,11.533,11.533,0,0,1,56.137,52.4Zm0,0" transform="translate(-30.832 -38.062)"/><path class="b" d="M14.334,0A13.834,13.834,0,0,0,.5,13.834c0,9.081,11.249,21.352,13.834,21.352S28.168,23.261,28.168,13.834A13.834,13.834,0,0,0,14.334,0Zm-.063,24.189a9.847,9.847,0,1,1,9.847-9.847A9.847,9.847,0,0,1,14.271,24.189Zm0,0" transform="translate(-0.5)"/><path class="c" d="M93.23,93.086c-.244,0-.486.013-.725.034a3.862,3.862,0,1,1-6.351,4.3,7.944,7.944,0,1,0,7.076-4.334Zm0,0" transform="translate(-79.458 -86.689)"/></svg>