<svg xmlns="http://www.w3.org/2000/svg" width="34.124" height="34.124" viewBox="0 0 34.124 34.124"><defs><style>.a{fill:#4a7aff;}.b{fill:#fff;}.c{fill:#dce1eb;}</style></defs><path class="a" d="M34.124,17.062A17.062,17.062,0,1,1,17.062,0,17.062,17.062,0,0,1,34.124,17.062Zm0,0"/><path class="b" d="M156.921,71.411v3.863s-4.436-.644-4.436,2.218v2.862h4.006l-.5,4.364h-3.506V96.094H148.05V84.718l-3.792-.072V80.354h3.72V77.063s-.246-4.9,4.579-5.795A12.89,12.89,0,0,1,156.921,71.411Zm0,0" transform="translate(-134.643 -66.392)"/><path class="c" d="M260.884,75.275V71.411a12.89,12.89,0,0,0-4.364-.143,6.763,6.763,0,0,0-.876.223v24.6h.8V84.718h3.506l.5-4.364h-4.006V77.492C256.448,74.631,260.884,75.275,260.884,75.275Zm0,0" transform="translate(-238.606 -66.392)"/></svg>