<svg xmlns="http://www.w3.org/2000/svg" width="92.678" height="92.678" viewBox="0 0 92.678 92.678"><defs><style>.a{fill:#ebebeb;}.b{fill:#f9c100;}.c{fill:#5a5a5a;}.d{fill:#0055a3;}.e{fill:#2e4b60;}</style></defs><g transform="translate(0 -0.002)"><g transform="translate(1.358 1.359)"><circle class="a" cx="30.076" cy="30.076" r="30.076" transform="translate(11.401 18.41)"/><circle class="b" cx="18.675" cy="18.675" r="18.675" transform="translate(22.803 29.811)"/><circle class="c" cx="7.273" cy="7.273" r="7.273" transform="translate(34.204 41.212)"/><g transform="translate(70.265)"><path class="d" d="M405.344,7.689l-9.1,9.1a1.927,1.927,0,0,0-.561,1.483l.527,8.4,10.72-10.72L406.439,8.1a.642.642,0,0,0-1.1-.414Z" transform="translate(-395.68 -7.5)"/><path class="d" d="M417.59,55.751l-9.1,9.1a1.927,1.927,0,0,1-1.483.561l-8.4-.527,10.72-10.72,7.844.492A.642.642,0,0,1,417.59,55.751Z" transform="translate(-398.081 -45.717)"/></g></g><path class="e" d="M80.67,22.414a3.286,3.286,0,0,0,2.323-.962l9.1-9.1A2,2,0,0,0,90.8,8.943l-4.842-.3,3.16-3.16A1.358,1.358,0,1,0,87.2,3.56l-3.16,3.16-.3-4.842A2,2,0,0,0,80.326.588l-9.1,9.1a3.286,3.286,0,0,0-.955,2.528l.313,4.983A42.841,42.841,0,0,0,11.142,78.662a1.358,1.358,0,0,0,2.009-1.827,40.14,40.14,0,0,1,57.1-56.329L64.059,26.7A31.414,31.414,0,0,0,14.882,64.213h0a31.433,31.433,0,0,0,58.733-7.978,1.358,1.358,0,1,0-2.659-.551A28.718,28.718,0,0,1,17.3,62.969h0a28.344,28.344,0,0,1-3.178-13.124A28.689,28.689,0,0,1,62.14,28.62L56,34.759a20.056,20.056,0,1,0,1.92,1.92l6.14-6.14a28.6,28.6,0,0,1,7.493,19.138,1.358,1.358,0,0,0,1.357,1.35h.008a1.358,1.358,0,0,0,1.35-1.365A31.3,31.3,0,0,0,65.98,28.619l6.195-6.195A40.141,40.141,0,0,1,17.6,81.038a1.358,1.358,0,0,0-1.709,2.11,42.837,42.837,0,0,0,69.777-33.3,42.488,42.488,0,0,0-8.424-25.514q-.856-1.153-1.779-2.237c5.322.334,5.035.32,5.2.32ZM60.152,49.845a17.338,17.338,0,1,1-6.076-13.161L47.9,42.861a8.643,8.643,0,1,0,1.92,1.92L56,38.6A17.242,17.242,0,0,1,60.152,49.845Zm-18.277.96a1.358,1.358,0,0,0,1.92,0l4.07-4.07a5.922,5.922,0,1,1-1.92-1.92l-4.07,4.07a1.358,1.358,0,0,0,0,1.92ZM72.982,12.045a.569.569,0,0,1,.166-.438l7.979-7.978.355,5.65-8.16,8.16Zm2.258,7.314L83.4,11.2l5.65.355-7.979,7.979a.567.567,0,0,1-.438.166Z" transform="translate(0 0)"/></g></svg>