<svg xmlns="http://www.w3.org/2000/svg" width="11.16" height="11.094" viewBox="0 0 11.16 11.094"><defs><style>.a{fill:#797d90;}</style></defs><path class="a" d="M10.724,7.627a.435.435,0,0,0,.436-.433V2.6A1.741,1.741,0,0,0,9.416.867H8.85V.433a.436.436,0,0,0-.872,0V.867H5.994V.433a.436.436,0,0,0-.872,0V.867H3.161V.433a.436.436,0,0,0-.872,0V.867H1.744A1.741,1.741,0,0,0,0,2.6V9.36a1.741,1.741,0,0,0,1.744,1.733H9.416A1.741,1.741,0,0,0,11.16,9.36a.436.436,0,0,0-.872,0,.87.87,0,0,1-.872.867H1.744A.87.87,0,0,1,.872,9.36V2.6a.87.87,0,0,1,.872-.867h.545v.433a.436.436,0,0,0,.872,0V1.733H5.122v.433a.436.436,0,0,0,.872,0V1.733H7.978v.433a.436.436,0,0,0,.872,0V1.733h.567a.87.87,0,0,1,.872.867V7.194A.435.435,0,0,0,10.724,7.627Z"/><g transform="translate(2.898 4.34)"><g transform="translate(0 0)"><circle class="a" cx="0.5" cy="0.5" r="0.5" transform="translate(0 0)"/></g></g><g transform="translate(6.898 4.34)"><g transform="translate(0 0)"><circle class="a" cx="0.5" cy="0.5" r="0.5" transform="translate(0 0)"/></g></g><g transform="translate(9.898 4.34)"><g transform="translate(0 0)"><ellipse class="a" cy="0.5" ry="0.5" transform="translate(0 0)"/></g></g><g transform="translate(2.898 6.34)"><g transform="translate(0 0)"><ellipse class="a" cx="0.5" rx="0.5" transform="translate(0 0)"/></g></g><g transform="translate(2.898 7.34)"><g transform="translate(0 0)"><circle class="a" cx="0.5" cy="0.5" r="0.5" transform="translate(0 0)"/></g></g><g transform="translate(3.898 4.34)"><g transform="translate(0 0)"><circle class="a" cx="0.5" cy="0.5" r="0.5" transform="translate(0 0)"/></g></g><g transform="translate(3.898 6.34)"><g transform="translate(0 0)"><ellipse class="a" cx="0.5" rx="0.5" transform="translate(0 0)"/></g></g><g transform="translate(3.898 7.34)"><g transform="translate(0 0)"><circle class="a" cx="0.5" cy="0.5" r="0.5" transform="translate(0 0)"/></g></g><g transform="translate(6.898 6.34)"><g transform="translate(0 0)"><ellipse class="a" cx="0.5" rx="0.5" transform="translate(0 0)"/></g></g><g transform="translate(9.898 6.34)"><g transform="translate(0 0)"><circle class="a" transform="translate(0 0)"/></g></g><g transform="translate(6.898 7.34)"><g transform="translate(0 0)"><circle class="a" cx="0.5" cy="0.5" r="0.5" transform="translate(0 0)"/></g></g></svg>