<svg xmlns="http://www.w3.org/2000/svg" xmlns:xlink="http://www.w3.org/1999/xlink" width="34" height="34" viewBox="0 0 34 34"><defs><style>.a{fill:url(#a);}.b{fill:url(#b);}.c{fill:#fff;}</style><radialGradient id="a" cx="0.382" cy="0.96" r="1.061" gradientTransform="matrix(1, 0, 0, 0.857, 0, 0.137)" gradientUnits="objectBoundingBox"><stop offset="0" stop-color="#fae100"/><stop offset="0" stop-color="#fbce0e"/><stop offset="0.018" stop-color="#fcb720"/><stop offset="0.111" stop-color="#fadc04"/><stop offset="0.251" stop-color="#fe9838"/><stop offset="0.305" stop-color="#ff7950"/><stop offset="0.492" stop-color="#ff1c74"/><stop offset="0.616" stop-color="#d51c8f"/><stop offset="1" stop-color="#6c1cd1"/></radialGradient><linearGradient id="b" x1="0.582" y1="0.887" x2="0.418" y2="0.113" gradientUnits="objectBoundingBox"><stop offset="0" stop-color="#833ab4" stop-opacity="0"/><stop offset="1" stop-color="#833ab4"/></linearGradient></defs><g transform="translate(-1066 -464.124)"><circle class="a" cx="17" cy="17" r="17" transform="translate(1066 464.124)"/><path class="b" d="M149.4,144.8a5.724,5.724,0,0,1-5.085,5.085,95.084,95.084,0,0,1-10.76.536l-7.3-7.3a5.119,5.119,0,0,0,3.23,1.24c3.168.119,6.348.116,9.516,0a5.092,5.092,0,0,0,5.029-5.09c.1-3.043.1-6.093,0-9.136a5.3,5.3,0,0,0-1.274-3.365l8.35,8.947C151.132,139.33,149.785,141.183,149.4,144.8Zm0,0" transform="translate(948.89 346.451)"/><g transform="translate(1073.231 471.409)"><path class="c" d="M95.09,103.247c.065-.462.115-.927.2-1.386a5.085,5.085,0,0,1,4.944-4.46c3.169-.109,6.348-.115,9.516,0a5.092,5.092,0,0,1,5.029,5.09q.143,4.564,0,9.136a5.092,5.092,0,0,1-5.028,5.09c-3.169.114-6.348.117-9.516,0a5.18,5.18,0,0,1-5.037-5.1c-.017-.248-.07-.494-.106-.741Zm9.882,11.771c1.45,0,2.9.043,4.35-.01a3.538,3.538,0,0,0,3.72-3.708q.1-4.24,0-8.484a3.516,3.516,0,0,0-3.72-3.7q-4.321-.091-8.645,0a3.5,3.5,0,0,0-3.714,3.649q-.117,4.293,0,8.592a3.518,3.518,0,0,0,3.714,3.653C102.107,115.061,103.54,115.018,104.972,115.018Zm0,0" transform="translate(-95.09 -97.317)"/><path class="c" d="M179.027,174a5.035,5.035,0,1,0,5.035,5.035A5.035,5.035,0,0,0,179.027,174Zm0,8.336a3.3,3.3,0,1,1,3.3-3.3A3.3,3.3,0,0,1,179.027,182.333Zm0,0" transform="translate(-169.148 -169.288)"/><path class="c" d="M325.681,151.94a1.2,1.2,0,1,1-1.2-1.2A1.2,1.2,0,0,1,325.681,151.94Zm0,0" transform="translate(-309.274 -147.462)"/></g></g></svg>