<svg xmlns="http://www.w3.org/2000/svg" width="18.088" height="18.662" viewBox="0 0 18.088 18.662"><defs><style>.a{fill:#fff;}</style></defs><g transform="translate(-0.109 0)"><path class="a" d="M5.6,11.074A7.069,7.069,0,0,1,7.249,1.291a6.888,6.888,0,0,1,9.672,1.673,7.069,7.069,0,0,1-1.654,9.782,6.873,6.873,0,0,1-7.538.315L2.614,18.2a1.44,1.44,0,0,1-2.053.053,1.48,1.48,0,0,1-.053-2.076c.017-.019.034-.036.053-.054Zm5.667.479A4.526,4.526,0,1,0,6.791,7.019a4.5,4.5,0,0,0,4.472,4.534Zm0,0" transform="translate(0 0)"/></g></svg>