<svg xmlns="http://www.w3.org/2000/svg" width="18.457" height="18.368" viewBox="0 0 18.457 18.368"><defs><style>.a{fill:#fff;}</style></defs><g transform="translate(0 -12.675)"><g transform="translate(0 12.675)"><g transform="translate(0 0)"><path class="a" d="M18.147,20.836l-8.281-7.9a.911.911,0,0,0-1.275,0L.31,20.836a1.017,1.017,0,0,0-.245,1.09.942.942,0,0,0,.883.633H2.27v7.916a.556.556,0,0,0,.543.568H7.352a.556.556,0,0,0,.543-.568V25.669h2.668v4.806a.556.556,0,0,0,.543.568h4.539a.556.556,0,0,0,.543-.568V22.559H17.51a.943.943,0,0,0,.883-.633A1.017,1.017,0,0,0,18.147,20.836Z" transform="translate(0 -12.675)"/></g></g><g transform="translate(10.639 14.074)"><g transform="translate(0 0)"><path class="a" d="M348.678,42.73h-4.705l5.406,4.916V43.431A.7.7,0,0,0,348.678,42.73Z" transform="translate(-343.973 -42.73)"/></g></g></g></svg>