<svg xmlns="http://www.w3.org/2000/svg" width="13.427" height="14.322" viewBox="0 0 13.427 14.322"><defs><style>.a{fill:#002379;}</style></defs><g transform="translate(3.133)"><g transform="translate(0)"><path class="a" d="M135.119,6.528a.446.446,0,0,0-.407-.262h-1.79V.448A.448.448,0,0,0,132.474,0h-1.79a.448.448,0,0,0-.448.448V6.266h-1.79a.447.447,0,0,0-.337.742l3.133,3.581a.447.447,0,0,0,.673,0l3.133-3.581A.446.446,0,0,0,135.119,6.528Z" transform="translate(-127.998 0)"/></g></g><g transform="translate(0 9.847)"><path class="a" d="M27.637,352v2.685H17.79V352H16v3.581a.9.9,0,0,0,.9.9H28.532a.894.894,0,0,0,.9-.9V352Z" transform="translate(-16 -352)"/></g></svg>