<svg xmlns="http://www.w3.org/2000/svg" width="34" height="34" viewBox="0 0 34 34"><defs><style>.a{fill:#d22215;}.b{fill:#fff;}</style></defs><g transform="translate(0.162 0.438)"><circle class="a" cx="17" cy="17" r="17" transform="translate(-0.162 -0.438)"/><path class="b" d="M124.832,152.333H113.518a4.019,4.019,0,0,0-4.019,4.019v5.656a4.019,4.019,0,0,0,4.019,4.019h11.314a4.019,4.019,0,0,0,4.019-4.019v-5.656a4.019,4.019,0,0,0-4.019-4.019Zm-2.718,7.122-5.292,2.524a.212.212,0,0,1-.3-.192v-5.206a.212.212,0,0,1,.308-.19l5.292,2.682a.212.212,0,0,1,0,.381Z" transform="translate(-102.337 -142.335)"/></g></svg>