<svg xmlns="http://www.w3.org/2000/svg" width="21" height="27.608" viewBox="0 0 21 27.608"><defs><style>.a{fill:#e2e5e7;}.b{fill:#b0b7bd;}.c{fill:#cad1d8;}.d{fill:#f15642;}.e{fill:#fff;}</style></defs><path class="a" d="M97.462,0A1.615,1.615,0,0,0,96,1.726V25.883a1.615,1.615,0,0,0,1.462,1.726h14.624a1.615,1.615,0,0,0,1.462-1.726V6.9L107.7,0Z" transform="translate(-92.549)"/><path class="b" d="M353.726,6.9H358.9L352,0V5.177A1.731,1.731,0,0,0,353.726,6.9Z" transform="translate(-337.902)"/><path class="c" d="M389.177,133.177,384,128h5.177Z" transform="translate(-368.177 -121.098)"/><path class="d" d="M49.549,249.49a.808.808,0,0,1-.731.863H32.731A.808.808,0,0,1,32,249.49v-8.628a.808.808,0,0,1,.731-.863H48.818a.808.808,0,0,1,.731.863Z" transform="translate(-32 -227.059)"/><g transform="translate(2.658 15.871)"><path class="e" d="M101.744,294.8a.475.475,0,0,1,.468-.476h1.594a1.725,1.725,0,0,1,0,3.449h-1.152v.911a.433.433,0,0,1-.442.475.465.465,0,0,1-.468-.475Zm.91.393v1.719h1.152a.86.86,0,0,0,0-1.719Z" transform="translate(-101.744 -294.32)"/><path class="e" d="M188.3,300.246a.432.432,0,0,1-.476-.427V295.9a.469.469,0,0,1,.476-.428h1.58c3.153,0,3.083,4.774.062,4.774Zm.435-3.932v3.09h1.145c1.863,0,1.946-3.09,0-3.09Z" transform="translate(-183.182 -295.41)"/><path class="e" d="M288.038,296.354v1.1H289.8a.533.533,0,0,1,.5.489.479.479,0,0,1-.5.414h-1.759V299.8a.409.409,0,0,1-.413.427.438.438,0,0,1-.489-.427v-3.919a.436.436,0,0,1,.489-.428h2.422a.43.43,0,0,1,.483.428.477.477,0,0,1-.483.469h-2.009Z" transform="translate(-277.139 -295.395)"/></g><path class="c" d="M109.393,416.863H96v.863h13.393a.8.8,0,0,0,.7-.863V416A.8.8,0,0,1,109.393,416.863Z" transform="translate(-92.549 -393.568)"/></svg>