<svg xmlns="http://www.w3.org/2000/svg" width="34" height="34" viewBox="0 0 34 34"><defs><style>.a{fill:#75b73b;}.b{fill:#fff;}</style></defs><g transform="translate(0.366 0.366)"><circle class="a" cx="17" cy="17" r="17" transform="translate(-0.366 -0.366)"/><g transform="translate(7.153 7.076)"><path class="b" d="M118.544,108.287a9.546,9.546,0,0,0-8.037,13.865l-1.013,4.918a.371.371,0,0,0,.449.436l4.819-1.142a9.543,9.543,0,1,0,3.782-18.078Zm5.75,14.815a7.477,7.477,0,0,1-8.609,1.409l-.671-.334-2.955.7.622-3.019-.33-.648a7.478,7.478,0,0,1,1.376-8.675A7.472,7.472,0,0,1,124.294,123.1Z" transform="translate(-109.467 -108.276)"/><path class="b" d="M191.612,190.845l-1.848-.531a.689.689,0,0,0-.682.18l-.452.46a.673.673,0,0,1-.732.155,9.866,9.866,0,0,1-3.183-2.807.673.673,0,0,1,.053-.746l.395-.51a.689.689,0,0,0,.085-.7l-.778-1.759a.689.689,0,0,0-1.076-.246,3.108,3.108,0,0,0-1.2,1.834c-.131,1.3.424,2.928,2.524,4.888,2.426,2.265,4.369,2.564,5.635,2.257A3.107,3.107,0,0,0,192,191.878a.69.69,0,0,0-.391-1.033Z" transform="translate(-177.438 -179.233)"/></g></g></svg>