<svg xmlns="http://www.w3.org/2000/svg" width="38" height="39" viewBox="0 0 38 39"><defs><style>.a{fill:#039be5;}.b{fill:#fff;}</style></defs><g transform="translate(0.212 0.424)"><ellipse class="a" cx="19" cy="19.5" rx="19" ry="19.5" transform="translate(-0.212 -0.424)"/><path class="b" d="M5.866,14.529,24.583,7.313c.869-.314,1.627.212,1.346,1.525l0,0L22.743,23.85c-.236,1.064-.869,1.323-1.754.822L16.137,21.1,13.8,23.35a1.224,1.224,0,0,1-.979.477l.345-4.939,8.994-8.126c.391-.345-.087-.539-.6-.2l-11.115,7L5.646,16.071c-1.04-.33-1.063-1.04.22-1.542Z" transform="translate(3.016 4.462)"/></g></svg>