<svg xmlns="http://www.w3.org/2000/svg" width="74.825" height="80" viewBox="0 0 74.825 80"><defs><style>.a{fill:#f9f5f3;}.b{fill:#f9eae0;}.c{fill:#a0c8ff;}.d{fill:#91b2fa;}.e{fill:#ffce69;}.f{fill:#ffbd61;}.g{fill:#bdd3dd;}.h{fill:#abc4d6;}.i{fill:#2e4b60;}</style></defs><g transform="translate(-16.559)"><g transform="translate(17.729 1.172)"><path class="a" d="M106.907,104.334v57.349a5.177,5.177,0,0,0,5.177,5.177h49.183a5.177,5.177,0,0,0,5.177-5.177V104.334Z" transform="translate(-93.96 -89.204)"/><path class="b" d="M436.985,104.334v57.349a5.177,5.177,0,0,1-5.177,5.177H435.4a5.177,5.177,0,0,0,5.177-5.177V104.334Z" transform="translate(-368.095 -89.204)"/><g transform="translate(0 36.236)"><path class="c" d="M76.774,284.812l-20.2-20.2-7.322,7.322,20.2,20.2a1.25,1.25,0,0,0,.884.366h1.116l5.688-5.688V285.7A1.251,1.251,0,0,0,76.774,284.812Z" transform="translate(-45.311 -260.671)"/><path class="d" d="M106.627,284.812l-20.2-20.2L84.63,266.4l20.907,20.907a1.249,1.249,0,0,1,.337.621l1.118-1.118V285.7a1.25,1.25,0,0,0-.366-.884Z" transform="translate(-75.164 -260.671)"/><path class="b" d="M188.65,402.76v-5.554a1.249,1.249,0,0,0-.08-.437l-7.161,7.161a1.248,1.248,0,0,0,.437.08H187.4A1.25,1.25,0,0,0,188.65,402.76Z" transform="translate(-156.821 -372.181)"/></g><path class="e" d="M161.266,40.634H112.083a5.177,5.177,0,0,0-5.177,5.177v7.766h59.537V45.811A5.177,5.177,0,0,0,161.266,40.634Z" transform="translate(-93.959 -35.457)"/><path class="f" d="M435.4,40.634h-3.594a5.177,5.177,0,0,1,5.177,5.177v7.766h3.594V45.811A5.177,5.177,0,0,0,435.4,40.634Z" transform="translate(-368.095 -35.457)"/><g transform="translate(20.712)"><path class="g" d="M156.607,15.266a2.589,2.589,0,1,0,5.177,0V10.089a2.589,2.589,0,1,0-5.177,0Z" transform="translate(-156.607 -7.5)"/><path class="g" d="M405.107,15.266a2.589,2.589,0,1,0,5.177,0V10.089a2.589,2.589,0,1,0-5.177,0Z" transform="translate(-366.279 -7.5)"/><path class="g" d="M239.44,15.266a2.589,2.589,0,1,0,5.177,0V10.089a2.589,2.589,0,1,0-5.177,0Z" transform="translate(-226.497 -7.5)"/><path class="g" d="M322.274,15.266a2.589,2.589,0,1,0,5.177,0V10.089a2.589,2.589,0,1,0-5.177,0Z" transform="translate(-296.389 -7.5)"/></g><path class="h" d="M411.971,7.5a2.578,2.578,0,0,0-1.8.728,2.579,2.579,0,0,1,.792,1.861v5.177a2.58,2.58,0,0,1-.792,1.861,2.587,2.587,0,0,0,4.385-1.861V10.089A2.589,2.589,0,0,0,411.971,7.5Z" transform="translate(-349.842 -7.5)"/><path class="h" d="M329.138,7.5a2.578,2.578,0,0,0-1.8.728,2.579,2.579,0,0,1,.792,1.861v5.177a2.58,2.58,0,0,1-.792,1.861,2.587,2.587,0,0,0,4.385-1.861V10.089A2.589,2.589,0,0,0,329.138,7.5Z" transform="translate(-279.951 -7.5)"/><path class="h" d="M246.3,7.5a2.578,2.578,0,0,0-1.8.728,2.579,2.579,0,0,1,.792,1.861v5.177a2.579,2.579,0,0,1-.792,1.861,2.587,2.587,0,0,0,4.385-1.861V10.089A2.589,2.589,0,0,0,246.3,7.5Z" transform="translate(-210.061 -7.5)"/><path class="h" d="M163.471,7.5a2.578,2.578,0,0,0-1.8.728,2.579,2.579,0,0,1,.792,1.861v5.177a2.579,2.579,0,0,1-.792,1.861,2.587,2.587,0,0,0,4.385-1.861V10.089A2.589,2.589,0,0,0,163.471,7.5Z" transform="translate(-140.17 -7.5)"/></g><g transform="translate(16.559 0)"><path class="i" d="M85.035,5.177H83.619V3.76a3.76,3.76,0,1,0-7.521,0V5.177H70.676V3.76a3.76,3.76,0,1,0-7.521,0V5.177H57.733V3.76a3.76,3.76,0,1,0-7.521,0V5.177H44.79V3.76a3.76,3.76,0,1,0-7.521,0V5.177H35.853A6.356,6.356,0,0,0,29.5,11.526V40.2l-2.867-2.867a3.764,3.764,0,0,0-5.318,0L17.659,41a3.764,3.764,0,0,0,0,5.318L29.5,58.161v15.49A6.356,6.356,0,0,0,35.853,80H75.718a1.172,1.172,0,0,0,0-2.344H35.853a4.01,4.01,0,0,1-4-4.005V60.5l9.56,9.56a1.143,1.143,0,0,0,.087.079c.02.017.042.032.063.047l.03.022c.027.018.055.034.082.049l.016.009c.03.016.06.03.09.043l.013.006c.03.012.06.023.09.032l.018.006c.028.009.057.015.086.022l.025.006c.028.005.056.009.084.012l.029,0c.038,0,.076.006.114.006h6.836L50.56,71.9a1.172,1.172,0,1,0,1.657-1.657L50.73,68.751V61.915q0-.058-.006-.115c0-.008,0-.017,0-.025,0-.03-.007-.059-.013-.089,0-.007,0-.015-.005-.022-.007-.03-.014-.06-.022-.089l-.005-.016c-.01-.031-.021-.062-.033-.092l0-.01c-.013-.032-.028-.063-.044-.094l-.007-.012c-.016-.029-.033-.058-.052-.086l-.019-.025c-.016-.023-.032-.045-.05-.067s-.051-.059-.079-.087l-9.56-9.56H81.152a1.172,1.172,0,0,0,0-2.344H39.736a1.168,1.168,0,0,0-.867.386l-7.021-7.021V20.464H89.04v7.992a1.172,1.172,0,1,0,2.344,0V11.526a6.356,6.356,0,0,0-6.349-6.349ZM48.386,68.064h-3.32l3.32-3.32ZM23.805,49.148l2-2L44.24,65.576l-2,2ZM45.9,63.918,27.466,45.487l2-2L47.9,61.915ZM19.316,42.655l3.661-3.661a1.418,1.418,0,0,1,2,0l2.832,2.832-2.832,2.832h0l-2.832,2.832-2.832-2.832A1.418,1.418,0,0,1,19.316,42.655ZM79.858,2.344A1.418,1.418,0,0,1,81.275,3.76V8.937a1.417,1.417,0,1,1-2.833,0V3.76a1.418,1.418,0,0,1,1.417-1.417Zm-12.943,0A1.418,1.418,0,0,1,68.332,3.76V8.937a1.417,1.417,0,1,1-2.833,0V3.76a1.418,1.418,0,0,1,1.417-1.417ZM52.556,3.76a1.417,1.417,0,1,1,2.833,0V8.937a1.417,1.417,0,1,1-2.833,0ZM41.03,2.344A1.418,1.418,0,0,1,42.447,3.76V8.937a1.417,1.417,0,1,1-2.833,0V3.76A1.418,1.418,0,0,1,41.03,2.344ZM31.848,18.12V11.526a4.01,4.01,0,0,1,4-4.005H37.27V8.937a3.76,3.76,0,1,0,7.521,0V7.521h5.422V8.937a3.76,3.76,0,1,0,7.521,0V7.521h5.422V8.937a3.76,3.76,0,1,0,7.521,0V7.521H76.1V8.937a3.76,3.76,0,1,0,7.521,0V7.521h1.417a4.01,4.01,0,0,1,4.005,4.005V18.12Z" transform="translate(-16.559 0)"/><path class="i" d="M428.653,204.619a1.172,1.172,0,0,0-1.172,1.172V246.3a4.01,4.01,0,0,1-4.005,4.005h-4.63a1.172,1.172,0,1,0,0,2.344h4.63a6.356,6.356,0,0,0,6.349-6.349V205.791A1.172,1.172,0,0,0,428.653,204.619Z" transform="translate(-355 -172.647)"/><path class="i" d="M158.562,168.011h41.417a1.172,1.172,0,0,0,0-2.344H158.562a1.172,1.172,0,0,0,0,2.344Z" transform="translate(-135.385 -139.782)"/><path class="i" d="M158.562,217.711h41.417a1.172,1.172,0,0,0,0-2.344H158.562a1.172,1.172,0,0,0,0,2.344Z" transform="translate(-135.385 -181.716)"/><path class="i" d="M158.562,267.411h41.417a1.172,1.172,0,0,0,0-2.344H158.562a1.172,1.172,0,1,0,0,2.344Z" transform="translate(-135.385 -223.65)"/><path class="i" d="M278.031,365.639a1.172,1.172,0,0,0-1.172-1.172H249.68a1.172,1.172,0,1,0,0,2.344h27.18A1.172,1.172,0,0,0,278.031,365.639Z" transform="translate(-212.266 -307.519)"/></g></g></svg>