<svg xmlns="http://www.w3.org/2000/svg" width="34" height="34" viewBox="0 0 34 34"><defs><style>.a{fill:#65a2d9;}.b{fill:#fff;}</style></defs><g transform="translate(0.124 0.124)"><circle class="a" cx="17" cy="17" r="17" transform="translate(-0.124 -0.124)"/><path class="b" d="M128.5,135.985a7.646,7.646,0,0,1-1.334.45,4.156,4.156,0,0,0,1.1-1.748.218.218,0,0,0-.319-.254,7.694,7.694,0,0,1-2.039.842.515.515,0,0,1-.127.016.541.541,0,0,1-.357-.136,4.169,4.169,0,0,0-2.759-1.041,4.457,4.457,0,0,0-1.321.2,4.04,4.04,0,0,0-2.723,2.911,4.448,4.448,0,0,0-.1,1.535.15.15,0,0,1-.038.117.155.155,0,0,1-.115.052h-.015a10.933,10.933,0,0,1-7.515-4.015.218.218,0,0,0-.357.028,4.175,4.175,0,0,0,.679,5.069,3.739,3.739,0,0,1-.951-.368.218.218,0,0,0-.324.188,4.175,4.175,0,0,0,2.436,3.846h-.089a3.734,3.734,0,0,1-.7-.067.218.218,0,0,0-.249.281,4.179,4.179,0,0,0,3.3,2.842,7.694,7.694,0,0,1-4.31,1.309h-.482a.319.319,0,0,0-.312.241.33.33,0,0,0,.158.365,11.444,11.444,0,0,0,5.751,1.551,11.6,11.6,0,0,0,4.914-1.043,10.852,10.852,0,0,0,3.6-2.694,11.812,11.812,0,0,0,2.2-3.688,11.65,11.65,0,0,0,.748-4.036v-.064a.71.71,0,0,1,.266-.552,8.244,8.244,0,0,0,1.658-1.82.218.218,0,0,0-.27-.32Z" transform="translate(-102.26 -125.282)"/></g></svg>