<svg xmlns="http://www.w3.org/2000/svg" width="15.414" height="12.189" viewBox="0 0 15.414 12.189"><defs><style>.a{fill:#797d90;}</style></defs><g transform="translate(0 1.611)"><g transform="translate(0 0)"><path class="a" d="M12.543,86.7H6.982L5.876,85.387a.189.189,0,0,0-.151-.068H1.238A1.247,1.247,0,0,0,0,86.565v8.086A1.247,1.247,0,0,0,1.245,95.9h11.3a1.247,1.247,0,0,0,1.245-1.245V87.947A1.247,1.247,0,0,0,12.543,86.7Z" transform="translate(0 -85.319)"/></g></g><g transform="translate(1.64)"><g transform="translate(0 0)"><path class="a" d="M55.937,44.061H50.374l-1.106-1.315a.189.189,0,0,0-.151-.068H44.632A1.245,1.245,0,0,0,43.4,43.755h4.091a.724.724,0,0,1,.556.258l.945,1.123H54.3a1.783,1.783,0,0,1,1.78,1.78v6.329a1.245,1.245,0,0,0,1.091-1.235V45.305A1.247,1.247,0,0,0,55.937,44.061Z" transform="translate(-43.4 -42.679)"/></g></g></svg>