<svg xmlns="http://www.w3.org/2000/svg" width="24.245" height="17.047" viewBox="0 0 24.245 17.047"><defs><style>.a{fill:#5971f7;}</style></defs><g transform="translate(0 -76)"><g transform="translate(16.678 77.218)"><g transform="translate(0 0)"><path class="a" d="M359.564,101.721l-7.353,7.306,7.353,7.306a2.107,2.107,0,0,0,.214-.913V102.634A2.106,2.106,0,0,0,359.564,101.721Z" transform="translate(-352.211 -101.721)"/></g></g><g transform="translate(1.218 76)"><g transform="translate(0 0)"><path class="a" d="M46.617,76H26.634a2.106,2.106,0,0,0-.913.214l9.4,9.351a2.133,2.133,0,0,0,3.013,0l9.4-9.351A2.106,2.106,0,0,0,46.617,76Z" transform="translate(-25.721 -76)"/></g></g><g transform="translate(0 77.218)"><g transform="translate(0 0)"><path class="a" d="M.214,101.721a2.106,2.106,0,0,0-.214.913v12.785a2.106,2.106,0,0,0,.214.913l7.353-7.306Z" transform="translate(0 -101.721)"/></g></g><g transform="translate(1.218 85.528)"><g transform="translate(0 0)"><path class="a" d="M40.177,277.211l-1.04,1.041a3.555,3.555,0,0,1-5.022,0l-1.04-1.041-7.353,7.306a2.106,2.106,0,0,0,.913.214H46.617a2.106,2.106,0,0,0,.913-.214Z" transform="translate(-25.721 -277.211)"/></g></g></g></svg>