<svg xmlns="http://www.w3.org/2000/svg" width="24.278" height="19.726" viewBox="0 0 24.278 19.726"><defs><style>.a{fill:#61c6e5;}</style></defs><g transform="translate(-103 -48)"><g transform="translate(103 48)"><path class="a" d="M24.278,50.335a10.377,10.377,0,0,1-2.868.786A4.949,4.949,0,0,0,23.6,48.37a9.946,9.946,0,0,1-3.156,1.2,4.977,4.977,0,0,0-8.61,3.4,5.125,5.125,0,0,0,.115,1.135A14.088,14.088,0,0,1,1.69,48.907,4.979,4.979,0,0,0,3.22,55.56a4.915,4.915,0,0,1-2.249-.613V55a5,5,0,0,0,3.988,4.89,4.968,4.968,0,0,1-1.3.164,4.4,4.4,0,0,1-.942-.085,5.025,5.025,0,0,0,4.651,3.467,10,10,0,0,1-6.171,2.123A9.323,9.323,0,0,1,0,65.492a14.012,14.012,0,0,0,7.635,2.234A14.069,14.069,0,0,0,21.8,53.563c0-.22-.008-.432-.018-.643A9.929,9.929,0,0,0,24.278,50.335Z" transform="translate(0 -48)"/></g></g></svg>